<?xml version="1.0" encoding="UTF-8" standalone="no"?>
<!-- Created with Inkscape (http://www.inkscape.org/) -->

<svg
   xmlns:dc="http://purl.org/dc/elements/1.1/"
   xmlns:cc="http://creativecommons.org/ns#"
   xmlns:rdf="http://www.w3.org/1999/02/22-rdf-syntax-ns#"
   xmlns:svg="http://www.w3.org/2000/svg"
   xmlns="http://www.w3.org/2000/svg"
   xmlns:xlink="http://www.w3.org/1999/xlink"
   xmlns:sodipodi="http://sodipodi.sourceforge.net/DTD/sodipodi-0.dtd"
   xmlns:inkscape="http://www.inkscape.org/namespaces/inkscape"
   width="80.325859"
   height="85.877289"
   viewBox="0 0 21.252883 22.7217"
   version="1.1"
   id="svg8"
   inkscape:version="0.92.1 r15371"
   sodipodi:docname="logo.svg"
   inkscape:export-filename="/home/rad/dev/my/foxhorn/icons/logo-48.png"
   inkscape:export-xdpi="59.198555"
   inkscape:export-ydpi="59.198555">
  <defs
     id="defs2">
    <linearGradient
       id="linearGradient4501"
       inkscape:collect="always">
      <stop
         id="stop4515"
         offset="0"
         style="stop-color:#000000;stop-opacity:0.91078067" />
      <stop
         style="stop-color:#000000;stop-opacity:0.84386617"
         offset="0.44438839"
         id="stop4520" />
      <stop
         id="stop4517"
         offset="1"
         style="stop-color:#2c1e00;stop-opacity:0;" />
    </linearGradient>
    <inkscape:path-effect
       effect="spiro"
       id="path-effect4523"
       is_visible="true" />
    <radialGradient
       inkscape:collect="always"
       xlink:href="#linearGradient4501"
       id="radialGradient4513"
       gradientUnits="userSpaceOnUse"
       gradientTransform="matrix(2.3875576,0.04353072,-0.03901473,1.9081099,-7.7829718,-246.42409)"
       cx="14.26088"
       cy="271.10065"
       fx="14.26088"
       fy="271.10065"
       r="1.9014367" />
  </defs>
  <sodipodi:namedview
     id="base"
     pagecolor="#ffffff"
     bordercolor="#666666"
     borderopacity="1.0"
     inkscape:pageopacity="0.0"
     inkscape:pageshadow="2"
     inkscape:zoom="8.1107821"
     inkscape:cx="3.4645794"
     inkscape:cy="16.626507"
     inkscape:document-units="mm"
     inkscape:current-layer="layer1"
     showgrid="false"
     units="px"
     inkscape:measure-start="11.3137,112.784"
     inkscape:measure-end="85.2064,86.0903"
     inkscape:window-width="1920"
     inkscape:window-height="1054"
     inkscape:window-x="0"
     inkscape:window-y="0"
     inkscape:window-maximized="1"
     fit-margin-top="5"
     fit-margin-left="5"
     fit-margin-right="5"
     fit-margin-bottom="5" />
  <metadata
     id="metadata5">
    <rdf:RDF>
      <cc:Work
         rdf:about="">
        <dc:format>image/svg+xml</dc:format>
        <dc:type
           rdf:resource="http://purl.org/dc/dcmitype/StillImage" />
        <dc:title></dc:title>
      </cc:Work>
    </rdf:RDF>
  </metadata>
  <g
     inkscape:label="Layer 1"
     inkscape:groupmode="layer"
     id="layer1"
     transform="translate(-6.7765268,-267.42032)">
    <g
       id="g4548"
       transform="translate(1.9176589,4.0224064)">
      <path
         sodipodi:nodetypes="czczcc"
         inkscape:connector-curvature="0"
         id="path3680"
         d="m 16.703151,267.58973 c 2.957134,3.60846 3.708023,2.39213 5.628807,4.53562 1.920784,2.14349 3.387198,6.93368 -0.260571,9.90035 0.481983,-3.74387 -1.078066,-5.44204 -2.826725,-6.25108 -1.748659,-0.80904 -2.091459,-0.7456 -5.108264,0.26 -3.03493,-0.79557 -1.674026,-8.65683 2.566753,-8.44489 z"
         style="fill:#ffb401;fill-opacity:1;fill-rule:evenodd;stroke:#000000;stroke-width:0.26458332px;stroke-linecap:butt;stroke-linejoin:miter;stroke-opacity:1"
         inkscape:export-filename="/home/rad/dev/my/foxhorn/path3680.png"
         inkscape:export-xdpi="35.771973"
         inkscape:export-ydpi="35.771973" />
      <path
         sodipodi:nodetypes="czczcc"
         inkscape:connector-curvature="0"
         id="path3680-3"
         d="m 17.87154,272.33952 c -0.106695,1.60043 2.338828,0.91191 4.001528,2.82995 1.6627,1.91805 1.601024,4.59114 0.198319,6.85623 0.505369,-4.74946 -1.382085,-5.53559 -2.709795,-6.25107 -1.327709,-0.71549 -2.479386,-0.72223 -3.461601,-0.34805 0.617654,-0.49988 1.290262,-1.47237 1.971549,-3.08706 z"
         style="fill:#fff3d9;fill-opacity:1;fill-rule:evenodd;stroke:none;stroke-width:0.26458332px;stroke-linecap:butt;stroke-linejoin:miter;stroke-opacity:1" />
    </g>
    <g
       id="g4552"
       transform="rotate(14.487581,4.3918439,280.17172)">
      <path
         sodipodi:nodetypes="ccccccc"
         inkscape:connector-curvature="0"
         id="path4525"
         d="m 10.306171,269.02453 c -0.237212,-0.89421 -0.209487,-1.88175 -0.09453,-3.04008 0.704242,0.47536 1.616891,0.76901 1.81379,1.75171 l 1.801236,-0.28675 c 0.220081,-1.19578 0.831877,-1.92149 1.486097,-2.5963 0.337992,0.86964 0.710893,1.70001 0.363803,3.34037 z"
         style="fill:#ffb401;fill-opacity:1;fill-rule:evenodd;stroke:#000000;stroke-width:0.26458332px;stroke-linecap:butt;stroke-linejoin:round;stroke-opacity:1" />
      <path
         sodipodi:nodetypes="ccccccc"
         inkscape:connector-curvature="0"
         id="path4525-5"
         d="m 10.401071,268.83092 c -0.132295,-0.89421 -0.01446,-1.31375 0.23165,-1.86881 0.44195,0.095 0.801808,0.0692 1.211569,0.82085 l 1.982376,-0.33355 c 0.293742,-0.68431 0.950302,-1.42628 1.34223,-1.58962 0.311763,0.52866 0.46635,0.85016 0.437464,2.06198 z"
         style="fill:#fff3d9;fill-opacity:1;fill-rule:evenodd;stroke:none;stroke-width:0.26458332px;stroke-linecap:butt;stroke-linejoin:round;stroke-opacity:1" />
    </g>
    <g
       id="g4544"
       transform="translate(1.9176589,4.0224064)">
      <path
         sodipodi:nodetypes="cccccscsc"
         inkscape:connector-curvature="0"
         id="path4500"
         d="m 7.1424423,280.17668 0.3293402,0.42594 -1.459769,1.4833 2.061101,0.73852 -0.3592868,0.64855 c 1.1390236,0.10803 3.1572293,1.83628 6.3605333,-0.45107 2.413856,-1.72365 6.669527,0.50966 7.997026,-0.99622 -2.621762,0.0428 -3.378413,-2.61483 -8.254146,-3.27139 -2.950754,-0.39734 -5.3920241,0.63733 -6.6747987,1.42237 z"
         style="fill:#ffb401;fill-opacity:1;fill-rule:evenodd;stroke:#000000;stroke-width:0.26499999;stroke-linecap:butt;stroke-linejoin:round;stroke-miterlimit:4;stroke-dasharray:none;stroke-opacity:1"
         inkscape:export-filename="/home/rad/dev/my/foxhorn/logo-32.png"
         inkscape:export-xdpi="35.771973"
         inkscape:export-ydpi="35.771973" />
      <path
         sodipodi:nodetypes="ccccccccc"
         inkscape:connector-curvature="0"
         id="path4500-7"
         d="m 7.1424423,280.17668 0.3293402,0.42594 -1.459769,1.4833 2.061101,0.73852 -0.3592868,0.64855 c 0.7898044,0.15907 0.9004454,0.1889 2.2922923,0.67779 0.297698,-1.43578 0.514539,-4.01124 -0.3402028,-4.87742 0.8167698,0.40839 6.3348038,0.44843 8.3855508,1.10315 -0.180384,-0.78718 -5.845603,-3.1571 -10.9090257,-0.19983 z"
         style="fill:#fffaee;fill-opacity:1;fill-rule:evenodd;stroke:none;stroke-width:0.26458332px;stroke-linecap:butt;stroke-linejoin:miter;stroke-opacity:1" />
    </g>
    <g
       id="g4589"
       transform="translate(1.9176589,4.0224064)">
      <ellipse
         ry="5.0556693"
         rx="4.4136071"
         cy="271.04144"
         cx="13.540543"
         id="path3682"
         style="opacity:1;fill:#ffb401;fill-opacity:1;stroke:#000000;stroke-width:0.229;stroke-linecap:round;stroke-linejoin:round;stroke-miterlimit:4;stroke-dasharray:none;stroke-opacity:1" />
      <path
         sodipodi:nodetypes="zczcz"
         inkscape:connector-curvature="0"
         id="path3682-3-5"
         d="m 9.9754757,271.01846 c -0.01366,2.55352 1.7104193,3.12954 3.0497643,3.14016 0.870322,8.5e-4 2.628365,-0.48994 2.666258,-2.92169 0.03789,-2.43175 -1.634046,-3.4486 -2.339877,-3.50132 -1.010819,-0.0527 -3.3624853,0.72933 -3.3761453,3.28285 z"
         style="opacity:1;fill:url(#radialGradient4513);fill-opacity:1;stroke:none;stroke-width:0.27608126;stroke-linecap:round;stroke-linejoin:round;stroke-miterlimit:4;stroke-dasharray:none;stroke-opacity:1" />
      <path
         sodipodi:nodetypes="cscc"
         inkscape:connector-curvature="0"
         id="path3682-3"
         d="m 16.426455,267.64405 c -0.413228,-0.41323 -1.216651,-1.60705 -3.380268,-1.49852 -1.924925,0.0966 -4.0032656,2.15116 -3.6748338,5.21403 0.9476428,-4.36836 4.3712398,-5.31822 7.0551018,-3.71551 z"
         style="opacity:1;fill:#ffffff;fill-opacity:0.80669147;stroke:none;stroke-width:0.229;stroke-linecap:round;stroke-linejoin:round;stroke-miterlimit:4;stroke-dasharray:none;stroke-opacity:1" />
    </g>
    <path
       sodipodi:nodetypes="ccccc"
       inkscape:connector-curvature="0"
       id="path3682-3-3"
       d="m 17.860588,276.40695 c -0.464217,1.05034 -1.369665,1.812 -2.27471,1.89888 -0.147734,0.77397 -0.228242,1.68323 -0.228242,1.68323 1.045391,-0.10417 3.297637,-0.44405 3.952996,-3.31723 -0.328393,-0.16089 -1.0746,0.27942 -1.450044,-0.26488 z"
       style="opacity:1;fill:#ffffff;fill-opacity:0.66542753;stroke:none;stroke-width:0.229;stroke-linecap:round;stroke-linejoin:round;stroke-miterlimit:4;stroke-dasharray:none;stroke-opacity:1" />
  </g>
</svg>
