<?xml version="1.0" encoding="UTF-8" standalone="no"?>
<!-- Created with Inkscape (http://www.inkscape.org/) -->

<svg
   xmlns:dc="http://purl.org/dc/elements/1.1/"
   xmlns:cc="http://creativecommons.org/ns#"
   xmlns:rdf="http://www.w3.org/1999/02/22-rdf-syntax-ns#"
   xmlns:svg="http://www.w3.org/2000/svg"
   xmlns="http://www.w3.org/2000/svg"
   xmlns:sodipodi="http://sodipodi.sourceforge.net/DTD/sodipodi-0.dtd"
   xmlns:inkscape="http://www.inkscape.org/namespaces/inkscape"
   width="80.325859"
   height="85.877289"
   viewBox="0 0 21.252883 22.7217"
   version="1.1"
   id="svg8"
   inkscape:version="0.92.1 r15371"
   sodipodi:docname="logo.svg"
   inkscape:export-filename="/home/rad/dev/my/foxhorn/icons/logo-32.png"
   inkscape:export-xdpi="53.657959"
   inkscape:export-ydpi="53.657959">
  <defs
     id="defs2">
    <inkscape:path-effect
       effect="spiro"
       id="path-effect4523"
       is_visible="true" />
  </defs>
  <sodipodi:namedview
     id="base"
     pagecolor="#ffffff"
     bordercolor="#666666"
     borderopacity="1.0"
     inkscape:pageopacity="0.0"
     inkscape:pageshadow="2"
     inkscape:zoom="11.313708"
     inkscape:cx="31.666169"
     inkscape:cy="40.453314"
     inkscape:document-units="mm"
     inkscape:current-layer="layer1"
     showgrid="false"
     units="px"
     inkscape:measure-start="11.3137,112.784"
     inkscape:measure-end="85.2064,86.0903"
     inkscape:window-width="1920"
     inkscape:window-height="1054"
     inkscape:window-x="0"
     inkscape:window-y="0"
     inkscape:window-maximized="1"
     fit-margin-top="5"
     fit-margin-left="5"
     fit-margin-right="5"
     fit-margin-bottom="5" />
  <metadata
     id="metadata5">
    <rdf:RDF>
      <cc:Work
         rdf:about="">
        <dc:format>image/svg+xml</dc:format>
        <dc:type
           rdf:resource="http://purl.org/dc/dcmitype/StillImage" />
        <dc:title></dc:title>
      </cc:Work>
    </rdf:RDF>
  </metadata>
  <g
     inkscape:label="Layer 1"
     inkscape:groupmode="layer"
     id="layer1"
     transform="translate(-6.7765268,-267.42032)">
    <g
       id="g4548"
       transform="translate(1.9176589,4.0224064)">
      <path
         sodipodi:nodetypes="czczcc"
         inkscape:connector-curvature="0"
         id="path3680"
         d="m 13.826663,267.44941 c 5.693306,0.38118 8.291696,2.50907 9.487511,4.27838 1.195816,1.7693 2.404982,7.33124 -1.242787,10.29791 0.481983,-3.74387 -1.078066,-5.44204 -2.826725,-6.25108 -1.748659,-0.80904 -5.950163,-1.2601 -5.950163,-1.2601 -3.03493,-0.79557 -3.7086152,-7.27705 0.532164,-7.06511 z"
         style="fill:#ffb401;fill-opacity:1;fill-rule:evenodd;stroke:#000000;stroke-width:0.26458332px;stroke-linecap:butt;stroke-linejoin:miter;stroke-opacity:1"
         inkscape:export-filename="/home/rad/dev/my/foxhorn/path3680.png"
         inkscape:export-xdpi="35.771973"
         inkscape:export-ydpi="35.771973" />
      <path
         sodipodi:nodetypes="czczcc"
         inkscape:connector-curvature="0"
         id="path3680-3"
         d="m 18.058629,272.15243 c 0,0 2.132749,0.44841 3.791053,2.43239 1.658303,1.98403 1.62441,5.17579 0.221705,7.44088 0.505369,-4.74946 -1.382085,-5.53559 -2.709795,-6.25107 -1.327709,-0.71549 -5.028469,-1.26011 -5.028469,-1.26011 1.015218,-0.21924 3.044219,-0.7474 3.725506,-2.36209 z"
         style="fill:#fff3d9;fill-opacity:1;fill-rule:evenodd;stroke:none;stroke-width:0.26458332px;stroke-linecap:butt;stroke-linejoin:miter;stroke-opacity:1" />
    </g>
    <g
       id="g4552"
       transform="translate(1.9176589,4.0224064)">
      <path
         sodipodi:nodetypes="ccccccc"
         inkscape:connector-curvature="0"
         id="path4525"
         d="m 10.740708,268.74317 c -0.237212,-0.89421 -0.503838,-1.80569 -0.388885,-2.96402 0.704242,0.47536 1.476705,0.97431 1.673604,1.95701 l 1.801236,-0.28675 c 0.220081,-1.19578 0.831877,-1.92149 1.486097,-2.5963 0.337992,0.86964 0.710893,1.70001 0.363803,3.34037 z"
         style="fill:#ffb401;fill-opacity:1;fill-rule:evenodd;stroke:#000000;stroke-width:0.26458332px;stroke-linecap:butt;stroke-linejoin:round;stroke-opacity:1" />
      <path
         sodipodi:nodetypes="ccccccc"
         inkscape:connector-curvature="0"
         id="path4525-5"
         d="m 10.740708,268.74317 c -0.132295,-0.89421 -0.202205,-1.38602 0.0439,-1.94108 0.44195,0.095 0.598026,0.12182 1.240822,0.93407 l 1.801236,-0.28675 c 0.403686,-0.68431 0.884335,-0.89855 1.276263,-1.06189 0.311763,0.52866 0.448601,0.57215 0.573637,1.80596 z"
         style="fill:#fff3d9;fill-opacity:1;fill-rule:evenodd;stroke:none;stroke-width:0.26458332px;stroke-linecap:butt;stroke-linejoin:round;stroke-opacity:1" />
    </g>
    <g
       id="g4544"
       transform="translate(1.9176589,4.0224064)">
      <path
         sodipodi:nodetypes="ccccccccsc"
         inkscape:connector-curvature="0"
         id="path4500"
         d="m 7.1424423,280.17668 0.9491427,0.68691 -1.5902537,0.37418 1.6370256,0.60803 -1.8241143,0.37418 2.1047474,0.60804 -1.6837979,0.51449 c 4.4093319,2.22762 12.7436639,1.53878 15.3361949,-1.31681 -2.621762,0.0428 -3.378413,-2.61483 -8.254146,-3.27139 -2.950754,-0.39734 -5.3920241,0.63733 -6.6747987,1.42237 z"
         style="fill:#ffb401;fill-opacity:1;fill-rule:evenodd;stroke:#000000;stroke-width:0.26499999;stroke-linecap:butt;stroke-linejoin:round;stroke-miterlimit:4;stroke-dasharray:none;stroke-opacity:1"
         inkscape:export-filename="/home/rad/dev/my/foxhorn/logo-32.png"
         inkscape:export-xdpi="35.771973"
         inkscape:export-ydpi="35.771973" />
      <path
         sodipodi:nodetypes="ccccccccccc"
         inkscape:connector-curvature="0"
         id="path4500-7"
         d="m 7.1424423,280.17668 0.9491427,0.68691 -1.5902537,0.37418 1.6370256,0.60803 -1.8241143,0.37418 2.1047474,0.60804 -1.6837979,0.51449 c 4.4093319,2.22762 12.7436639,1.53878 15.3361949,-1.31681 -8.820257,3.57748 -8.190556,0.4249 -11.497807,2.16414 0.297698,-1.43578 -0.181633,-4.27562 -1.036415,-5.1418 0,0 -1.1315302,0.33381 -2.3947227,1.12864 z"
         style="fill:#fff3d9;fill-opacity:1;fill-rule:evenodd;stroke:none;stroke-width:0.26458332px;stroke-linecap:butt;stroke-linejoin:miter;stroke-opacity:1" />
    </g>
    <g
       id="g4589"
       transform="translate(1.9176589,4.0224064)">
      <ellipse
         ry="3.55896"
         rx="3.9224994"
         cy="271.04144"
         cx="13.540543"
         id="path3682"
         style="opacity:1;fill:#ffb401;fill-opacity:1;stroke:#000000;stroke-width:0.229;stroke-linecap:round;stroke-linejoin:round;stroke-miterlimit:4;stroke-dasharray:none;stroke-opacity:1" />
      <path
         sodipodi:nodetypes="ssccs"
         inkscape:connector-curvature="0"
         id="path3682-3"
         d="m 17.482396,270.97159 c 0,1.96556 -1.756163,3.55896 -3.9225,3.55896 -2.166336,0 -2.566509,-0.83272 -3.095676,-1.47537 3.868903,1.45934 6.042229,0.58427 6.171457,-4.05505 0.446545,0.56224 0.846719,0.93194 0.846719,1.97146 z"
         style="opacity:1;fill:#fff3d9;fill-opacity:1;stroke:none;stroke-width:0.229;stroke-linecap:round;stroke-linejoin:round;stroke-miterlimit:4;stroke-dasharray:none;stroke-opacity:1" />
      <path
         sodipodi:nodetypes="ssccs"
         inkscape:connector-curvature="0"
         id="path3682-3-5"
         d="m 14.142031,267.54029 c -1.364492,-0.16823 -3.401323,0.60757 -3.939037,1.66553 -0.9815427,1.93122 -0.3175505,2.37536 -0.2844779,3.22099 5.8250089,-0.57204 6.1249119,-2.49153 6.7171609,-3.42668 -0.801958,-0.91777 -1.736617,-1.36651 -2.493646,-1.45984 z"
         style="opacity:1;fill:#2c1e00;fill-opacity:1;stroke:none;stroke-width:0.229;stroke-linecap:round;stroke-linejoin:round;stroke-miterlimit:4;stroke-dasharray:none;stroke-opacity:1" />
    </g>
  </g>
</svg>
