<?xml version="1.0" encoding="UTF-8" standalone="no"?>
<!-- Created with Inkscape (http://www.inkscape.org/) -->

<svg
   xmlns:dc="http://purl.org/dc/elements/1.1/"
   xmlns:cc="http://creativecommons.org/ns#"
   xmlns:rdf="http://www.w3.org/1999/02/22-rdf-syntax-ns#"
   xmlns:svg="http://www.w3.org/2000/svg"
   xmlns="http://www.w3.org/2000/svg"
   xmlns:sodipodi="http://sodipodi.sourceforge.net/DTD/sodipodi-0.dtd"
   xmlns:inkscape="http://www.inkscape.org/namespaces/inkscape"
   width="80.325859"
   height="85.877289"
   viewBox="0 0 21.252883 22.7217"
   version="1.1"
   id="svg8"
   inkscape:version="0.92.1 r15371"
   sodipodi:docname="logo.svg"
   inkscape:export-filename="/home/rad/dev/my/foxhorn/icons/logo-32.png"
   inkscape:export-xdpi="58.410168"
   inkscape:export-ydpi="58.410168">
  <defs
     id="defs2">
    <inkscape:path-effect
       effect="spiro"
       id="path-effect4523"
       is_visible="true" />
  </defs>
  <sodipodi:namedview
     id="base"
     pagecolor="#ffffff"
     bordercolor="#666666"
     borderopacity="1.0"
     inkscape:pageopacity="0.0"
     inkscape:pageshadow="2"
     inkscape:zoom="5.7351889"
     inkscape:cx="14.621159"
     inkscape:cy="72.065924"
     inkscape:document-units="mm"
     inkscape:current-layer="layer1"
     showgrid="false"
     units="px"
     inkscape:measure-start="11.3137,112.784"
     inkscape:measure-end="85.2064,86.0903"
     inkscape:window-width="1920"
     inkscape:window-height="1054"
     inkscape:window-x="0"
     inkscape:window-y="0"
     inkscape:window-maximized="1"
     fit-margin-top="5"
     fit-margin-left="5"
     fit-margin-right="5"
     fit-margin-bottom="5" />
  <metadata
     id="metadata5">
    <rdf:RDF>
      <cc:Work
         rdf:about="">
        <dc:format>image/svg+xml</dc:format>
        <dc:type
           rdf:resource="http://purl.org/dc/dcmitype/StillImage" />
        <dc:title></dc:title>
      </cc:Work>
    </rdf:RDF>
  </metadata>
  <g
     inkscape:label="Layer 1"
     inkscape:groupmode="layer"
     id="layer1"
     transform="translate(-6.7765268,-267.42032)">
    <g
       id="g4548"
       transform="translate(1.9176589,4.0224064)">
      <path
         sodipodi:nodetypes="czczcc"
         inkscape:connector-curvature="0"
         id="path3680"
         d="m 16.703151,267.58973 c 2.957134,3.60846 3.708023,2.39213 5.628807,4.53562 1.920784,2.14349 3.387198,6.93368 -0.260571,9.90035 0.481983,-3.74387 -1.078066,-5.44204 -2.826725,-6.25108 -1.748659,-0.80904 -2.091459,-0.7456 -5.108264,0.26 -3.03493,-0.79557 -1.674026,-8.65683 2.566753,-8.44489 z"
         style="fill:#ffb401;fill-opacity:1;fill-rule:evenodd;stroke:#000000;stroke-width:0.26458332px;stroke-linecap:butt;stroke-linejoin:miter;stroke-opacity:1"
         inkscape:export-filename="/home/rad/dev/my/foxhorn/path3680.png"
         inkscape:export-xdpi="35.771973"
         inkscape:export-ydpi="35.771973" />
      <path
         sodipodi:nodetypes="czczcc"
         inkscape:connector-curvature="0"
         id="path3680-3"
         d="m 17.87154,272.33952 c -0.106695,1.60043 2.338828,0.91191 4.001528,2.82995 1.6627,1.91805 1.601024,4.59114 0.198319,6.85623 0.505369,-4.74946 -1.382085,-5.53559 -2.709795,-6.25107 -1.327709,-0.71549 -2.479386,-0.72223 -3.461601,-0.34805 0.617654,-0.49988 1.290262,-1.47237 1.971549,-3.08706 z"
         style="fill:#fff3d9;fill-opacity:1;fill-rule:evenodd;stroke:none;stroke-width:0.26458332px;stroke-linecap:butt;stroke-linejoin:miter;stroke-opacity:1" />
    </g>
    <g
       id="g4552"
       transform="rotate(14.487581,4.3918439,280.17172)">
      <path
         sodipodi:nodetypes="ccccccc"
         inkscape:connector-curvature="0"
         id="path4525"
         d="m 10.306171,269.02453 c -0.237212,-0.89421 -0.209487,-1.88175 -0.09453,-3.04008 0.704242,0.47536 1.616891,0.76901 1.81379,1.75171 l 1.801236,-0.28675 c 0.220081,-1.19578 0.831877,-1.92149 1.486097,-2.5963 0.337992,0.86964 0.710893,1.70001 0.363803,3.34037 z"
         style="fill:#ffb401;fill-opacity:1;fill-rule:evenodd;stroke:#000000;stroke-width:0.26458332px;stroke-linecap:butt;stroke-linejoin:round;stroke-opacity:1" />
      <path
         sodipodi:nodetypes="ccccccc"
         inkscape:connector-curvature="0"
         id="path4525-5"
         d="m 10.401071,268.83092 c -0.132295,-0.89421 -0.01446,-1.31375 0.23165,-1.86881 0.44195,0.095 0.801808,0.0692 1.211569,0.82085 l 1.982376,-0.33355 c 0.293742,-0.68431 0.950302,-1.42628 1.34223,-1.58962 0.311763,0.52866 0.46635,0.85016 0.437464,2.06198 z"
         style="fill:#fff3d9;fill-opacity:1;fill-rule:evenodd;stroke:none;stroke-width:0.26458332px;stroke-linecap:butt;stroke-linejoin:round;stroke-opacity:1" />
    </g>
    <g
       id="g4544"
       transform="translate(1.9176589,4.0224064)">
      <path
         sodipodi:nodetypes="ccccccccsc"
         inkscape:connector-curvature="0"
         id="path4500"
         d="m 7.1424423,280.17668 0.9491427,0.68691 -1.5902537,0.37418 1.6370256,0.60803 -1.8241143,0.37418 2.1047474,0.60804 -1.6837979,0.51449 c 4.4093319,2.22762 12.7436639,1.53878 15.3361949,-1.31681 -2.621762,0.0428 -3.378413,-2.61483 -8.254146,-3.27139 -2.950754,-0.39734 -5.3920241,0.63733 -6.6747987,1.42237 z"
         style="fill:#ffb401;fill-opacity:1;fill-rule:evenodd;stroke:#000000;stroke-width:0.26499999;stroke-linecap:butt;stroke-linejoin:round;stroke-miterlimit:4;stroke-dasharray:none;stroke-opacity:1"
         inkscape:export-filename="/home/rad/dev/my/foxhorn/logo-32.png"
         inkscape:export-xdpi="35.771973"
         inkscape:export-ydpi="35.771973" />
      <path
         sodipodi:nodetypes="ccccccccccc"
         inkscape:connector-curvature="0"
         id="path4500-7"
         d="m 7.1424423,280.17668 0.9491427,0.68691 -1.5902537,0.37418 1.6370256,0.60803 -1.8241143,0.37418 2.1047474,0.60804 -1.6837979,0.51449 c 1.8663035,0.81149 2.3031564,0.93918 3.7928669,1.06924 0.297698,-1.43578 -0.0074,-4.27221 -0.8621418,-5.13839 0.8167698,0.40839 6.3348038,0.44843 8.3855508,1.10315 -0.180384,-0.78718 -5.845603,-3.1571 -10.9090257,-0.19983 z"
         style="fill:#fff3d9;fill-opacity:1;fill-rule:evenodd;stroke:none;stroke-width:0.26458332px;stroke-linecap:butt;stroke-linejoin:miter;stroke-opacity:1" />
    </g>
    <g
       id="g4589"
       transform="translate(1.9176589,4.0224064)">
      <ellipse
         ry="5.0556693"
         rx="4.4136071"
         cy="271.04144"
         cx="13.540543"
         id="path3682"
         style="opacity:1;fill:#ffb401;fill-opacity:1;stroke:#000000;stroke-width:0.229;stroke-linecap:round;stroke-linejoin:round;stroke-miterlimit:4;stroke-dasharray:none;stroke-opacity:1" />
      <path
         sodipodi:nodetypes="zczcz"
         inkscape:connector-curvature="0"
         id="path3682-3-5"
         d="m 11.63972,271.21191 c -0.04545,0.92244 0.548917,2.25831 1.735992,2.25955 1.187075,0.001 2.013971,-0.87286 2.062383,-2.21939 0.04841,-1.34652 -0.755566,-2.55891 -1.858149,-2.60459 -1.102582,-0.0457 -1.894777,1.64199 -1.940226,2.56443 z"
         style="opacity:1;fill:#2c1e00;fill-opacity:1;stroke:none;stroke-width:0.229;stroke-linecap:round;stroke-linejoin:round;stroke-miterlimit:4;stroke-dasharray:none;stroke-opacity:1" />
      <path
         sodipodi:nodetypes="cscc"
         inkscape:connector-curvature="0"
         id="path3682-3"
         d="m 16.426455,267.64405 c -0.413228,-0.41323 -1.216651,-1.60705 -3.380268,-1.49852 -1.924925,0.0966 -4.0032656,2.15116 -3.6748338,5.21403 0.9476428,-4.36836 4.3712398,-5.31822 7.0551018,-3.71551 z"
         style="opacity:1;fill:#ffffff;fill-opacity:0.80669147;stroke:none;stroke-width:0.229;stroke-linecap:round;stroke-linejoin:round;stroke-miterlimit:4;stroke-dasharray:none;stroke-opacity:1" />
    </g>
    <path
       sodipodi:nodetypes="ccccc"
       inkscape:connector-curvature="0"
       id="path3682-3-3"
       d="m 17.583788,276.33775 c -0.464217,1.05034 -1.138998,1.6044 -2.044043,1.69128 -0.147734,0.77397 -0.182109,1.96003 -0.182109,1.96003 1.045391,-0.10417 3.297637,-0.44405 3.952996,-3.31723 -0.328393,-0.16089 -1.3514,0.21022 -1.726844,-0.33408 z"
       style="opacity:1;fill:#ffffff;fill-opacity:0.66542753;stroke:none;stroke-width:0.229;stroke-linecap:round;stroke-linejoin:round;stroke-miterlimit:4;stroke-dasharray:none;stroke-opacity:1" />
  </g>
</svg>
